<svg id="레이어_1" data-name="레이어 1" xmlns="http://www.w3.org/2000/svg" viewBox="0 0 262.47 219.43"><defs><style>.cls-1{fill:#346fa3;}.cls-2{fill:#fff;}</style></defs><title>logo_white</title><path class="cls-1" d="M3.13,151.91H90.27L75.91,182.55h52l43.27-98.4c19.41,2.7,36.94,8.27,50.69,22,12.29,12.33,15,27.13,8.55,43.31-6.31,15.84-17.82,27.59-31.63,36.84-33,22.12-69.1,33.5-109.36,33.11-22.35-.22-44-1.18-63.78-12.3C9.74,198.2-1.35,185.8.16,166,.48,161.35,2.07,156.76,3.13,151.91Z" transform="translate(-0.02 0.01)"/><path class="cls-2" d="M99.48,132.74c-18.68-2.19-34.92-7-48.57-18.42-15.43-12.95-20.4-30.77-10.16-48.08C48,54.06,57.75,42,69.24,34,112.59,4,161-6.65,213,4c11,2.27,22,7.43,31.57,13.53C262,28.75,266.48,45.62,259,66.16H179c6.42-14.94,12.65-29.43,20.1-46.74L82.55,64.64l.16,1.64h48.2C120,89.35,110,110.63,99.48,132.74Z" transform="translate(-0.02 0.01)"/></svg>