<svg id="레이어_1" data-name="레이어 1" xmlns="http://www.w3.org/2000/svg" viewBox="0 0 34.41 31.9"><defs><style>.cls-1{fill:#fff;}</style></defs><title>footer_blog2</title><path class="cls-1" d="M12,9.05H38.55l.37.11a4.57,4.57,0,0,1,3.53,4.35q0,7.6,0,15.22a4.56,4.56,0,0,1-4.54,4.46c-2.86,0-5.73,0-8.59,0a.35.35,0,0,0-.39.25c-.65,1.55-1.31,3.09-2,4.63l-1,2.28c-.2.45-.44.63-.8.59s-.53-.34-.65-.64q-1.45-3.39-2.88-6.8a.43.43,0,0,0-.47-.31c-2.86,0-5.73,0-8.59,0a4.57,4.57,0,0,1-4.46-3.57,1.36,1.36,0,0,0-.11-.28V13a1.42,1.42,0,0,0,.1-.29,4.49,4.49,0,0,1,2.48-3.15A11.31,11.31,0,0,1,12,9.05ZM34.42,28a14.53,14.53,0,0,0,1.48,0,2.37,2.37,0,0,0,1.6-.81,3.17,3.17,0,0,0,.78-2.2c0-1.9,0-3.81,0-5.71V19h-2v.59a2.19,2.19,0,0,0-1.16-.72,2.79,2.79,0,0,0-3.24,1.92,7.37,7.37,0,0,0-.16,1.7,2.32,2.32,0,0,0,1.53,2.35,2.67,2.67,0,0,0,3-.43,2.19,2.19,0,0,1-.37,1.33c-.37.48-.9.42-1.42.42Zm-20.1-3.62a2.39,2.39,0,0,0,2.07.66,2.71,2.71,0,0,0,2.37-2,4.4,4.4,0,0,0-.05-2.25,2.65,2.65,0,0,0-3.07-1.93,2.08,2.08,0,0,0-1.34.73v-3.2h-2v8.44h2ZM30.63,22c0-.16,0-.35-.07-.54a2.46,2.46,0,0,0-.15-.53A3.51,3.51,0,0,0,25,19.64a2.93,2.93,0,0,0-.18,4.49,3.53,3.53,0,0,0,4.08.52A3,3,0,0,0,30.63,22ZM19.49,16.12c0,.58,0,1.16,0,1.74,0,.17.05.24.22.31a1,1,0,0,1,.76,1.12v5.54h2c0-.07,0-.12,0-.17,0-1.92,0-3.84,0-5.76A2.72,2.72,0,0,0,19.49,16.12Z" transform="translate(-8.05 -9.05)"/><path class="cls-1" d="M35.08,23.22A1.25,1.25,0,1,1,36.34,22,1.23,1.23,0,0,1,35.08,23.22Z" transform="translate(-8.05 -9.05)"/><path class="cls-1" d="M15.57,20.81A1.19,1.19,0,1,1,14.36,22,1.2,1.2,0,0,1,15.57,20.81Z" transform="translate(-8.05 -9.05)"/><path class="cls-1" d="M28.53,22a1.24,1.24,0,0,1-1.29,1.27,1.27,1.27,0,1,1,0-2.54A1.23,1.23,0,0,1,28.53,22Z" transform="translate(-8.05 -9.05)"/></svg>