<svg id="Capa_1" data-name="Capa 1" xmlns="http://www.w3.org/2000/svg" viewBox="0 0 512 352"><defs><style>.cls-1{fill:#fff;}</style></defs><title>footer_youtube</title><path class="cls-1" d="M490.24,113.92c-13.89-24.7-29-29.25-59.65-31C399.94,80.86,322.85,80,256.06,80s-144,.86-174.65,2.91c-30.63,1.76-45.73,6.27-59.75,31C7.36,138.59,0,181.09,0,255.9v.26c0,74.5,7.36,117.31,21.66,141.73,14,24.7,29.09,29.18,59.72,31.26C112,430.94,189.15,432,256.06,432s143.88-1.06,174.56-2.82c30.69-2.08,45.76-6.56,59.65-31.26C504.7,373.5,512,330.69,512,256.19v-.25C512,181.09,504.7,138.59,490.24,113.92ZM192,352V160l160,96Z" transform="translate(0 -80)"/></svg>