<svg id="Capa_1" data-name="Capa 1" xmlns="http://www.w3.org/2000/svg" viewBox="0 0 361.83 425"><defs><style>.cls-1{fill:#fff;}</style></defs><title>company</title><path class="cls-1" d="M270.33,190.18h38.24a8.3,8.3,0,0,0,8.3-8.3V143.57a8.3,8.3,0,0,0-8.3-8.3H270.33a8.31,8.31,0,0,0-8.3,8.3v38.31a8.31,8.31,0,0,0,8.3,8.3Zm8.3-38.3h21.64v21.7H278.63Z" transform="translate(-67.88 -52)"/><path class="cls-1" d="M195,190.18h38.24a8.31,8.31,0,0,0,8.3-8.3V143.57a8.31,8.31,0,0,0-8.3-8.3H195a8.31,8.31,0,0,0-8.3,8.3v38.31A8.31,8.31,0,0,0,195,190.18Zm8.3-38.3H225v21.7H203.32Z" transform="translate(-67.88 -52)"/><path class="cls-1" d="M270.33,274.5h38.24a8.3,8.3,0,0,0,8.3-8.3V227.89a8.3,8.3,0,0,0-8.3-8.3H270.33a8.31,8.31,0,0,0-8.3,8.3V266.2a8.31,8.31,0,0,0,8.3,8.3Zm8.3-38.31h21.64v21.7H278.63Z" transform="translate(-67.88 -52)"/><path class="cls-1" d="M195,274.5h38.24a8.31,8.31,0,0,0,8.3-8.3V227.89a8.31,8.31,0,0,0-8.3-8.3H195a8.31,8.31,0,0,0-8.3,8.3V266.2A8.31,8.31,0,0,0,195,274.5Zm8.3-38.31H225v21.7H203.32Z" transform="translate(-67.88 -52)"/><path class="cls-1" d="M270.33,358.81h38.24a8.29,8.29,0,0,0,8.3-8.3v-38.3a8.3,8.3,0,0,0-8.3-8.3H270.33a8.31,8.31,0,0,0-8.3,8.3v38.3a8.3,8.3,0,0,0,8.3,8.3Zm8.3-38.3h21.64v21.7H278.63Z" transform="translate(-67.88 -52)"/><path class="cls-1" d="M233.26,358.81a8.3,8.3,0,0,0,8.3-8.3v-38.3a8.31,8.31,0,0,0-8.3-8.3H195a8.31,8.31,0,0,0-8.3,8.3v38.3a8.3,8.3,0,0,0,8.3,8.3Zm-29.94-38.3H225v21.7H203.32Z" transform="translate(-67.88 -52)"/><path class="cls-1" d="M421.41,460.4H413.7V209.67a8.31,8.31,0,0,0-8.3-8.3H351.31V98.45a8.29,8.29,0,0,0-8.3-8.3H325.33V60.3A8.31,8.31,0,0,0,317,52H186.57a8.31,8.31,0,0,0-8.31,8.3V90.15H160.58a8.29,8.29,0,0,0-8.3,8.3V258.21H106.73a8.3,8.3,0,0,0-8.3,8.3V460.4H76.18a8.3,8.3,0,0,0,0,16.6H421.41a8.3,8.3,0,0,0,0-16.6ZM194.87,68.6H308.73V90.15H194.87ZM115,274.81h37.25V460.4H115Zm53.85-168.06H334.71V460.4H293.39V405.63a8.31,8.31,0,0,0-8.3-8.3H218.5a8.31,8.31,0,0,0-8.3,8.3V460.4H168.88ZM226.8,460.4V413.93h50V460.4Zm124.51,0V218h45.78V460.4Z" transform="translate(-67.88 -52)"/></svg>