<svg id="레이어_1" data-name="레이어 1" xmlns="http://www.w3.org/2000/svg" viewBox="0 0 147.57 124.1">
  <defs>
    <style>
      .cls-1 {
        fill: #9c80b6;
      }
    </style>
  </defs>
  <title>footer_logo</title>
  <g>
    <path class="cls-1" d="M1.8,88.8H52.7c-2.8,6-5.4,11.6-8.4,17.9H74.7C82.9,88,91.4,68.7,100,49.2c11.4,1.6,21.6,4.8,29.6,12.9,7.2,7.2,8.8,15.9,5,25.3s-10.4,16.1-18.5,21.5c-19.3,12.9-40.4,19.6-63.9,19.4-13.1-.1-25.7-.7-37.3-7.2C5.6,115.9-.9,108.6,0,97.1.3,94.3,1.2,91.7,1.8,88.8Z" transform="translate(0.08 -4.2)"/>
    <path class="cls-1" d="M52.1,81.8C41.2,80.5,31.7,77.7,23.8,71c-9-7.6-11.9-18-5.9-28.1,4.2-7.1,9.9-14.2,16.6-18.8C59.9,6.5,88.1.3,118.5,6.6A57.2,57.2,0,0,1,137,14.5c10.2,6.5,12.8,16.4,8.5,28.4H98.7c3.8-8.7,7.4-17.2,11.8-27.3L42.3,42l.1,1H70.6C64.1,56.4,58.3,68.9,52.1,81.8Z" transform="translate(0.08 -4.2)"/>
  </g>
</svg>
