<svg id="레이어_1" data-name="레이어 1" xmlns="http://www.w3.org/2000/svg" viewBox="0 0 262.53 219.47"><defs><style>.cls-1{fill:#1c2548;}.cls-2{fill:#346fa3;}</style></defs><title>logo</title><path class="cls-1" d="M114.65,251.41h87.14l-14.36,30.64h52l43.27-98.4c19.41,2.7,36.94,8.27,50.69,22,12.29,12.33,15,27.13,8.55,43.31-6.31,15.84-17.82,27.59-31.63,36.84-33,22.12-69.1,33.5-109.36,33.11-22.35-.22-44-1.18-63.78-12.3-15.91-8.91-27-21.31-25.49-41.13C112,260.85,113.59,256.26,114.65,251.41Z" transform="translate(-111.52 -99.5)"/><path class="cls-2" d="M211,232.24c-18.68-2.19-34.92-7-48.57-18.42-15.43-12.95-20.4-30.77-10.16-48.08,7.21-12.18,17-24.24,28.49-32.21,43.35-30,91.72-40.68,143.73-30,11,2.27,22,7.43,31.57,13.53,17.48,11.19,21.94,28.06,14.5,48.6h-80c6.42-14.94,12.65-29.43,20.1-46.74L194.07,164.14l.16,1.64h48.2C231.54,188.85,221.48,210.13,211,232.24Z" transform="translate(-111.52 -99.5)"/></svg>