<svg id="레이어_1" data-name="레이어 1" xmlns="http://www.w3.org/2000/svg" viewBox="0 0 569.43 569.45"><defs><style>.cls-1{fill:#fff;}</style></defs><title>service</title><path class="cls-1" d="M1.8,52.2l38,66.4a9.5,9.5,0,0,0,5.93,4.5L81.08,132,202.5,253.37,215.92,240,92.6,116.64a9.5,9.5,0,0,0-4.41-2.5l-34-8.53L21.87,49l27.7-27.7,56.59,32.34,8.54,34a9.44,9.44,0,0,0,2.49,4.41L240.52,215.43,253.93,202,132.51,80.59,123.66,45.2a9.54,9.54,0,0,0-4.5-5.94L52.75,1.32A9.49,9.49,0,0,0,41.37,2.84l-37.95,38A9.5,9.5,0,0,0,1.8,52.2Z" transform="translate(-0.55 0)"/><path class="cls-1" d="M396.2,187,187.5,395.67l-13.41-13.42,208.7-208.7Z" transform="translate(-0.55 0)"/><path class="cls-1" d="M151,403.05a9.5,9.5,0,0,0-8.14-4.6H85.93a9.49,9.49,0,0,0-8.13,4.6L49.34,450.48a9.49,9.49,0,0,0,0,9.78L77.8,507.69a9.49,9.49,0,0,0,8.13,4.6h56.91a9.5,9.5,0,0,0,8.14-4.6l28.45-47.43a9.49,9.49,0,0,0,0-9.78Zm-13.5,90.26H91.3L68.53,455.37,91.3,417.42h46.18l22.76,37.95Z" transform="translate(-0.55 0)"/><path class="cls-1" d="M455.9,227.69A113.42,113.42,0,0,0,566.24,86.35a9.48,9.48,0,0,0-15.9-4.43l-59.06,59-46.85-15.62L428.81,78.48l59.05-59.06A9.49,9.49,0,0,0,483.41,3.5,113.48,113.48,0,0,0,342.06,113.85a111.39,111.39,0,0,0,2.31,22.23L136.61,343.84a112.11,112.11,0,0,0-22.22-2.31A113.84,113.84,0,1,0,228.22,455.37a111.38,111.38,0,0,0-2.3-22.23l49.73-49.74,21.76,21.76a9.49,9.49,0,0,0,13.41,0l4.74-4.75a10.64,10.64,0,0,1,15.07,15l0,0-4.74,4.74a9.47,9.47,0,0,0,0,13.41L439,546.78A76.57,76.57,0,0,0,547.8,439l-.49-.49L434.14,325.34a9.47,9.47,0,0,0-13.41,0L416,330.08a10.64,10.64,0,0,1-15.07-15l0,0,4.75-4.75a9.49,9.49,0,0,0,0-13.41l-21.75-21.75,49.73-49.74A111.46,111.46,0,0,0,455.9,227.69Zm37.27,322.54A57.48,57.48,0,0,1,473,546.55l74.09-74.09a57.52,57.52,0,0,1-53.91,77.77ZM385.7,303.68a29.61,29.61,0,0,0,41.74,41.68L533.9,451.92c1.15,1.15,2.23,2.38,3.28,3.62l-81.11,81.11c-1.25-1-2.47-2.13-3.63-3.29L345.9,426.81a29.61,29.61,0,0,0-41.74-41.68L289,370l81.54-81.41ZM424,208.27,208.8,423.43a9.48,9.48,0,0,0-2.5,9,95.5,95.5,0,1,1-69-69,9.55,9.55,0,0,0,9-2.5L361.48,145.79a9.45,9.45,0,0,0,2.49-9A94.4,94.4,0,0,1,461.29,19.15L411.24,69.21a9.46,9.46,0,0,0-2.29,9.7l19,56.92a9.48,9.48,0,0,0,6,6l56.92,19a9.49,9.49,0,0,0,9.7-2.29l50-50c.11,1.81.17,3.6.17,5.38A94.37,94.37,0,0,1,433,205.77a9.49,9.49,0,0,0-9,2.49H424Z" transform="translate(-0.55 0)"/><path class="cls-1" d="M491.07,477.12l-13.41,13.41L382.8,395.67l13.41-13.41Z" transform="translate(-0.55 0)"/></svg>