<?xml version="1.0" encoding="utf-8"?>
<!-- Generator: Adobe Illustrator 22.0.1, SVG Export Plug-In . SVG Version: 6.00 Build 0)  -->
<svg version="1.1" id="Layer_5" xmlns="http://www.w3.org/2000/svg" xmlns:xlink="http://www.w3.org/1999/xlink" x="0px" y="0px"
	 viewBox="0 0 512 512" style="enable-background:new 0 0 512 512;" xml:space="preserve">
<style type="text/css">
	.st0{fill:#FFFFFF;}
</style>
<g>
	<path class="st0" d="M432,8H320c-13.2,0-24,10.8-24,24v16c-17.6,0-32,14.4-32,32s14.4,32,32,32v40h64v-16c0-8.8,7.2-16,16-16
		s16,7.2,16,16v16h40c13.2,0,24-10.8,24-24V32C456,18.8,445.2,8,432,8z M440,128c0,4.4-3.6,8-8,8h-24c0-17.6-14.4-32-32-32
		s-32,14.4-32,32h-32V96h-16c-8.8,0-16-7.2-16-16s7.2-16,16-16h16V32c0-4.4,3.6-8,8-8h112c4.4,0,8,3.6,8,8V128z"/>
	<path class="st0" d="M296,168c-17.6,0-32,14.4-32,32h-32v-40h-16c-8.8,0-16-7.2-16-16s7.2-16,16-16h16V56h-21.4
		C125.3,56,56,125.3,56,210.6c0,46.5,20.7,90.1,56.7,119.6l31.3,25.6v21.7c-9.3,3.3-16,12.1-16,22.5c0,11.1,7.6,20.3,17.8,23.1
		c-1.1,2.8-1.8,5.8-1.8,8.9c0,10.6,6.9,19.5,16.4,22.7c3.3,27.7,27,49.3,55.6,49.3s52.3-21.6,55.6-49.3c9.5-3.2,16.4-12.1,16.4-22.7
		c0-3.2-0.6-6.2-1.8-8.9c10.2-2.8,17.8-12,17.8-23.1c0-10.4-6.7-19.2-16-22.5v-21.7l31.3-25.6c36-29.5,56.7-73.1,56.7-119.6V200h-48
		C328,182.4,313.6,168,296,168z M210.6,72h5.4v40c-17.6,0-32,14.4-32,32s14.4,32,32,32v24h-32c0-17.6-14.4-32-32-32s-32,14.4-32,32
		H72.4C77.8,128.5,137.7,72,210.6,72z M122.8,317.8C91.9,292.5,73.6,255.7,72.1,216H136v-16c0-8.8,7.2-16,16-16s16,7.2,16,16v16h48
		v32c-17.6,0-32,14.4-32,32s14.4,32,32,32v64h-56v-27.8L122.8,317.8z M216,488c-19.3,0-35.5-13.8-39.2-32h78.4
		C251.5,474.2,235.3,488,216,488z M264,440h-96c-4.4,0-8-3.6-8-8s3.6-8,8-8h96c4.4,0,8,3.6,8,8S268.4,440,264,440z M280,408h-16h-96
		h-16c-4.4,0-8-3.6-8-8s3.6-8,8-8h128c4.4,0,8,3.6,8,8S284.4,408,280,408z M309.2,317.8L272,348.2V376h-40v-80h-16
		c-8.8,0-16-7.2-16-16s7.2-16,16-16h16v-48h48v-16c0-8.8,7.2-16,16-16s16,7.2,16,16v16h47.9C358.4,255.7,340.1,292.5,309.2,317.8z"
		/>
</g>
</svg>
